<svg xmlns="http://www.w3.org/2000/svg" width="196" height="196" viewBox="0 0 196 196" fill="none">
<defs>
  <!-- Deep, polished Navy gradient for the outer frames and dark fills -->
  <linearGradient id="navy-gradient" x1="15%" y1="5%" x2="85%" y2="95%">
    <stop offset="0%" stop-color="#143452" />
    <stop offset="25%" stop-color="#0A1C2E" />
    <stop offset="50%" stop-color="#183D5D" />
    <stop offset="75%" stop-color="#0A1C2E" />
    <stop offset="100%" stop-color="#050E17" />
  </linearGradient>

  <!-- Warm, multi-stop metallic gold gradient for the elegant accents -->
  <linearGradient id="gold-gradient" x1="15%" y1="5%" x2="85%" y2="95%">
    <stop offset="0%" stop-color="#C59B3C" />
    <stop offset="20%" stop-color="#FDE08B" />
    <stop offset="50%" stop-color="#D4AF37" />
    <stop offset="80%" stop-color="#FDE08B" />
    <stop offset="100%" stop-color="#8A5A19" />
  </linearGradient>
</defs>
<path d="M 97.5,4.22 C 46.61,4.22 4.5,46.33 4.5,97.22 C 4.5,148.11 46.61,191.09 97.5,191.09 C 148.39,191.09 192,148.11 192,97.22 C 192,46.33 148.39,4.22 97.5,4.22 Z" fill="url(#gold-gradient)" stroke="#0A2540" stroke-width="1.16" stroke-miterlimit="10"/>
<path d="M 97.12,6.24 C 48.29,6.24 6.94,47.59 6.94,96.42 C 6.94,145.25 48.29,188.46 97.12,188.46 C 145.95,188.46 189.49,145.25 189.49,96.42 C 189.49,47.59 145.95,6.24 97.12,6.24 Z" stroke="#FDE08B" stroke-width="0.58" stroke-miterlimit="10"/>
<path d="M 97.5,8.35 C 49.71,8.35 9.43,48.63 9.43,96.42 C 9.43,144.21 49.71,185.63 97.5,185.63 C 145.29,185.63 187.13,144.21 187.13,96.42 C 187.13,48.63 145.29,8.35 97.5,8.35 Z" stroke="#C59B3C" stroke-width="0.58" stroke-miterlimit="10"/>
<path d="M 97.5,10.39 C 51.09,10.39 11.81,49.67 11.81,96.08 C 11.81,142.49 51.09,183.14 97.5,183.14 C 143.91,183.14 184.81,142.49 184.81,96.08 C 184.81,49.67 143.91,10.39 97.5,10.39 Z" stroke="#D4AF37" stroke-width="0.58" stroke-miterlimit="10"/>
<path d="M 97.5,12.48 C 52.45,12.48 13.93,51.01 13.93,96.06 C 13.93,141.11 52.45,180.97 97.5,180.97 C 142.55,180.97 182.63,141.11 182.63,96.06 C 182.63,51.01 142.55,12.48 97.5,12.48 Z" fill="#FFFFFF"/>
<path d="M 97.5,16.99 C 55.08,16.99 18.41,53.65 18.41,96.07 C 18.41,138.49 55.08,176.41 97.5,176.41 C 139.92,176.41 177.13,138.49 177.13,96.07 C 177.13,53.65 139.92,16.99 97.5,16.99 Z" fill="#FFFFFF" stroke="#0A2540" stroke-width="1.16" stroke-miterlimit="10"/>
<path d="M 97.5,21.8 C 57.41,21.8 22.91,56.3 22.91,96.39 C 22.91,136.48 57.41,172.11 97.5,172.11 C 137.59,172.11 172.62,136.48 172.62,96.39 C 172.62,56.3 137.59,21.8 97.5,21.8 Z" fill="#FFFFFF" stroke="#0A2540" stroke-width="0.58" stroke-miterlimit="10"/>
<path d="M 97.5,23.41 L 97.89,28.49 H 97.12 L 97.5,23.41 Z" fill="#0A2540" stroke="#0A2540" stroke-width="1.16" stroke-miterlimit="10"/>
<path d="M 97.5,166.79 L 98.77,172.52 H 96.23 L 97.5,166.79 Z" fill="#0A2540" stroke="#0A2540" stroke-width="0.58" stroke-miterlimit="10"/>
<path d="M 166.97,97.07 L 172.91,95.41 V 98.33 L 166.97,97.07 Z" fill="#0A2540" stroke="#0A2540" stroke-width="1.16" stroke-miterlimit="10"/>
<path d="M 28.71,97.07 L 22.77,95.11 V 98.03 L 28.71,97.07 Z" fill="#0A2540" stroke="#0A2540" stroke-width="0.58" stroke-miterlimit="10"/>
<path d="M 85.49,24.11 L 86.21,28.74" stroke="#0A2540" stroke-width="0.58" stroke-miterlimit="10"/>
<path d="M 89.46,23.51 L 90.18,27.82" stroke="#0A2540" stroke-width="0.58" stroke-miterlimit="10"/>
<path d="M 93.77,23.06 L 94.34,27.62" stroke="#0A2540" stroke-width="0.58" stroke-miterlimit="10"/>
<path d="M 109.81,23.51 L 109.09,27.82" stroke="#0A2540" stroke-width="0.58" stroke-miterlimit="10"/>
<path d="M 113.86,24.01 L 112.91,28.49" stroke="#0A2540" stroke-width="0.58" stroke-miterlimit="10"/>
<path d="M 118.17,24.82 L 116.91,29.13" stroke="#0A2540" stroke-width="0.58" stroke-miterlimit="10"/>
<path d="M 126.19,27.11 L 124.36,31.3" stroke="#0A2540" stroke-width="0.58" stroke-miterlimit="10"/>
<path d="M 130.13,28.74 L 127.97,32.89" stroke="#0A2540" stroke-width="0.58" stroke-miterlimit="10"/>
<path d="M 133.91,30.51 L 131.45,34.6" stroke="#0A2540" stroke-width="0.58" stroke-miterlimit="10"/>
<path d="M 139.38,33.51 L 136.51,37.35" stroke="#0A2540" stroke-width="0.58" stroke-miterlimit="10"/>
<path d="M 143.72,36.41 L 140.48,40.08" stroke="#0A2540" stroke-width="0.58" stroke-miterlimit="10"/>
<path d="M 147.91,39.61 L 144.31,43.28" stroke="#0A2540" stroke-width="0.58" stroke-miterlimit="10"/>
<path d="M 152.79,43.9 L 148.85,47.29" stroke="#0A2540" stroke-width="0.58" stroke-miterlimit="10"/>
<path d="M 157.01,48.48 L 152.79,51.43" stroke="#0A2540" stroke-width="0.58" stroke-miterlimit="10"/>
<path d="M 160.78,53.21 L 156.47,56.01" stroke="#0A2540" stroke-width="0.58" stroke-miterlimit="10"/>
<path d="M 164.31,58.36 L 159.75,60.82" stroke="#0A2540" stroke-width="0.58" stroke-miterlimit="10"/>
<path d="M 167.31,63.83 L 162.61,65.81" stroke="#0A2540" stroke-width="0.58" stroke-miterlimit="10"/>
<path d="M 169.72,69.54 L 164.87,71.24" stroke="#0A2540" stroke-width="0.58" stroke-miterlimit="10"/>
<path d="M 171.56,75.25 L 166.56,76.64" stroke="#0A2540" stroke-width="0.58" stroke-miterlimit="10"/>
<path d="M 172.82,81.31 L 167.6,82.27" stroke="#0A2540" stroke-width="0.58" stroke-miterlimit="10"/>
<path d="M 173.51,87.22 L 168.22,87.89" stroke="#0A2540" stroke-width="0.58" stroke-miterlimit="10"/>
<path d="M 173.78,93.21 L 168.69,93.48" stroke="#0A2540" stroke-width="0.58" stroke-miterlimit="10"/>
<path d="M 173.64,101.23 L 168.56,100.71" stroke="#0A2540" stroke-width="0.58" stroke-miterlimit="10"/>
<path d="M 172.97,106.94 L 167.88,106.1" stroke="#0A2540" stroke-width="0.58" stroke-miterlimit="10"/>
<path d="M 171.71,112.91 L 166.71,111.51" stroke="#0A2540" stroke-width="0.58" stroke-miterlimit="10"/>
<path d="M 170.01,118.75 L 165.01,116.84" stroke="#0A2540" stroke-width="0.58" stroke-miterlimit="10"/>
<path d="M 167.6,124.71 L 162.97,122.49" stroke="#0A2540" stroke-width="0.58" stroke-miterlimit="10"/>
<path d="M 164.41,130.67 L 160.09,127.94" stroke="#0A2540" stroke-width="0.58" stroke-miterlimit="10"/>
<path d="M 160.47,136.7 L 156.46,133.44" stroke="#0A2540" stroke-width="0.58" stroke-miterlimit="10"/>
<path d="M 156.12,142.04 L 152.45,138.37" stroke="#0A2540" stroke-width="0.58" stroke-miterlimit="10"/>
<path d="M 151.31,147.08 L 147.78,143.11" stroke="#0A2540" stroke-width="0.58" stroke-miterlimit="10"/>
<path d="M 145.71,151.96 L 142.32,147.78" stroke="#0A2540" stroke-width="0.58" stroke-miterlimit="10"/>
<path d="M 140.07,156.11 L 137.04,151.69" stroke="#0A2540" stroke-width="0.58" stroke-miterlimit="10"/>
<path d="M 134.11,159.71 L 131.45,155.15" stroke="#0A2540" stroke-width="0.58" stroke-miterlimit="10"/>
<path d="M 128.01,162.71 L 125.86,157.97" stroke="#0A2540" stroke-width="0.58" stroke-miterlimit="10"/>
<path d="M 121.61,165.31 L 119.91,160.43" stroke="#0A2540" stroke-width="0.58" stroke-miterlimit="10"/>
<path d="M 115.41,167.36 L 114.15,162.48" stroke="#0A2540" stroke-width="0.58" stroke-miterlimit="10"/>
<path d="M 109.09,168.72 L 108.28,163.84" stroke="#0A2540" stroke-width="0.58" stroke-miterlimit="10"/>
<path d="M 102.79,170.01 L 102.38,164.97" stroke="#0A2540" stroke-width="0.58" stroke-miterlimit="10"/>
<path d="M 94.77,170.42 L 94.36,165.48" stroke="#0A2540" stroke-width="0.58" stroke-miterlimit="10"/>
<path d="M 88.71,170.15 L 87.97,165.04" stroke="#0A2540" stroke-width="0.58" stroke-miterlimit="10"/>
<path d="M 82.65,169.2 L 81.46,164.25" stroke="#0A2540" stroke-width="0.58" stroke-miterlimit="10"/>
<path d="M 76.71,167.7 L 74.95,162.82" stroke="#0A2540" stroke-width="0.58" stroke-miterlimit="10"/>
<path d="M 70.93,165.72 L 68.71,160.84" stroke="#0A2540" stroke-width="0.58" stroke-miterlimit="10"/>
<path d="M 65.15,163.09 L 62.69,158.53" stroke="#0A2540" stroke-width="0.58" stroke-miterlimit="10"/>
<path d="M 58.61,159.42 L 55.78,155.04" stroke="#0A2540" stroke-width="0.58" stroke-miterlimit="10"/>
<path d="M 52.97,155.42 L 49.58,151.2" stroke="#0A2540" stroke-width="0.58" stroke-miterlimit="10"/>
<path d="M 47.76,150.73 L 43.92,147.06" stroke="#0A2540" stroke-width="0.58" stroke-miterlimit="10"/>
<path d="M 43.11,145.62 L 38.86,142.43" stroke="#0A2540" stroke-width="0.58" stroke-miterlimit="10"/>
<path d="M 39.06,140.15 L 34.61,137.32" stroke="#0A2540" stroke-width="0.58" stroke-miterlimit="10"/>
<path d="M 35.67,134.34 L 31.04,132.05" stroke="#0A2540" stroke-width="0.58" stroke-miterlimit="10"/>
<path d="M 32.71,128.21 L 27.9,126.31" stroke="#0A2540" stroke-width="0.58" stroke-miterlimit="10"/>
<path d="M 30.36,122.22 L 25.41,120.66" stroke="#0A2540" stroke-width="0.58" stroke-miterlimit="10"/>
<path d="M 28.52,115.92 L 23.71,114.83" stroke="#0A2540" stroke-width="0.58" stroke-miterlimit="10"/>
<path d="M 27.33,109.86 L 22.63,109.05" stroke="#0A2540" stroke-width="0.58" stroke-miterlimit="10"/>
<path d="M 26.79,103.63 L 22.31,103.22" stroke="#0A2540" stroke-width="0.58" stroke-miterlimit="10"/>
<path d="M 26.72,86.61 L 31.67,87.22" stroke="#0A2540" stroke-width="0.58" stroke-miterlimit="10"/>
<path d="M 27.81,80.65 L 32.76,81.8" stroke="#0A2540" stroke-width="0.58" stroke-miterlimit="10"/>
<path d="M 29.72,74.55 L 34.67,76.21" stroke="#0A2540" stroke-width="0.58" stroke-miterlimit="10"/>
<path d="M 32.35,68.15 L 37.01,70.13" stroke="#0A2540" stroke-width="0.58" stroke-miterlimit="10"/>
<path d="M 35.41,62.26 L 39.87,64.86" stroke="#0A2540" stroke-width="0.58" stroke-miterlimit="10"/>
<path d="M 39.33,56.55 L 43.51,59.61" stroke="#0A2540" stroke-width="0.58" stroke-miterlimit="10"/>
<path d="M 43.51,51.37 L 47.35,54.9" stroke="#0A2540" stroke-width="0.58" stroke-miterlimit="10"/>
<path d="M 48.36,46.49 L 51.96,50.33" stroke="#0A2540" stroke-width="0.58" stroke-miterlimit="10"/>
<path d="M 53.64,42.07 L 56.97,46.15" stroke="#0A2540" stroke-width="0.58" stroke-miterlimit="10"/>
<path d="M 59.05,38.16 L 61.98,42.54" stroke="#0A2540" stroke-width="0.58" stroke-miterlimit="10"/>
<path d="M 64.94,34.73 L 67.23,39.36" stroke="#0A2540" stroke-width="0.58" stroke-miterlimit="10"/>
<path d="M 70.58,31.77 L 72.74,36.33" stroke="#0A2540" stroke-width="0.58" stroke-miterlimit="10"/>
<path d="M 76.91,29.13 L 78.41,33.95" stroke="#0A2540" stroke-width="0.58" stroke-miterlimit="10"/>
<path opacity="0.3" d="M 184.78,86.13 L 186.31,87.22 L 187.12,92.1 V 99.01 L 185.22,101.91 L 183.62,97.07 L 184.78,86.13 Z" fill="#0A2540"/>
<path opacity="0.3" d="M 179.31,59.1 L 180.12,60.97 L 179.45,62.06 L 177.75,59.1 H 179.31 Z" fill="#0A2540"/>
<path opacity="0.3" d="M 158.03,31.16 L 164.31,37.35 L 165.61,39.61 L 163.15,40.9 L 153.92,33.51 L 154.06,31.16 H 158.03 Z" fill="#0A2540"/>
<path opacity="0.3" d="M 147.91,24.82 L 149.17,27.11 L 148.46,28.74 L 145.07,26.42 V 24.01 L 147.91,24.82 Z" fill="#0A2540"/>
<path opacity="0.3" d="M 135.75,21.12 L 137.11,21.8 L 136.51,24.01 L 134.73,22.61 L 135.75,21.12 Z" fill="#0A2540"/>
<path opacity="0.3" d="M 115.41,12.48 L 117.32,13.22 L 116.91,14.92 L 113.86,14.03 L 114.15,12.48 H 115.41 Z" fill="#0A2540"/>
<path opacity="0.3" d="M 105.81,10.39 L 107.33,11.13 L 106.45,12.48 L 104.06,11.6 L 105.81,10.39 Z" fill="#0A2540"/>
<path opacity="0.3" d="M 93.77,8.35 H 97.12 L 97.5,10.39 L 93.77,10.05 V 8.35 Z" fill="#0A2540"/>
<path opacity="0.3" d="M 88.71,12.48 L 90.62,12.75 L 90.18,13.9 L 86.21,14.03 L 85.49,13.22 L 88.71,12.48 Z" fill="#0A2540"/>
<path opacity="0.3" d="M 71.06,15.74 L 76.71,14.92 L 80.61,14.03 L 84.35,14.92 L 81.02,16.99 L 75.11,17.73 L 71.06,16.99 V 15.74 Z" fill="#0A2540"/>
<path opacity="0.3" d="M 45.72,22.61 L 51.43,20.01 L 56.06,17.73 L 57.72,18.75 L 51.43,23.41 L 45.72,25.36 V 22.61 Z" fill="#0A2540"/>
<path opacity="0.3" d="M 20.11,57.01 L 22.77,56.01 L 23.71,57.61 L 20.11,64.79 L 18.41,64.11 L 20.11,57.01 Z" fill="#0A2540"/>
<path opacity="0.3" d="M 12.22,85.72 L 13.93,85.11 L 14.61,86.13 L 13.35,94.16 L 11.81,93.21 L 12.22,85.72 Z" fill="#0A2540"/>
<path opacity="0.3" d="M 10.24,97.07 L 11.81,98.03 L 12.22,100.22 V 102.92 L 10.24,101.23 V 97.07 Z" fill="#0A2540"/>
<path opacity="0.3" d="M 14.61,70.13 L 15.94,69.1 L 16.82,70.13 L 15.94,73.16 L 14.61,72.14 V 70.13 Z" fill="#0A2540"/>
<path opacity="0.3" d="M 22.16,140.15 L 23.71,139.34 L 25.41,141.11 L 23.71,142.04 L 22.16,140.15 Z" fill="#0A2540"/>
<path opacity="0.3" d="M 165.14,148.73 L 167.6,150.73 L 166.56,153.15 L 162.14,150.73 L 163.15,148.04 L 165.14,148.73 Z" fill="#0A2540"/>
<path opacity="0.3" d="M 142.77,170.01 L 144.72,170.89 L 142.77,172.52 L 138.21,171.23 L 138.62,168.72 L 140.48,167.7 L 142.77,170.01 Z" fill="#0A2540"/>
<path opacity="0.3" d="M 65.15,177.96 L 71.06,179.66 L 69.87,180.97 L 63.44,178.91 L 65.15,177.96 Z" fill="#0A2540"/>
<path opacity="0.3" d="M 84.35,183.14 L 87.15,183.75 L 86.21,184.63 L 83.06,183.92 L 84.35,183.14 Z" fill="#0A2540"/>
<path opacity="0.3" d="M 100.26,185.12 L 101.45,185.63 L 100.26,186.41 L 98.77,185.63 L 100.26,185.12 Z" fill="#0A2540"/>
<path opacity="0.3" d="M 84.35,31.91 L 87.91,31.16 L 89.19,33.03 L 87.15,35.15 L 83.06,34.6 L 84.35,31.91 Z" fill="#D4AF37"/>
<path opacity="0.3" d="M 65.15,40.9 L 67.71,39.36 L 71.06,41.71 L 70.14,45.14 L 67.23,47.29 L 64.47,44.33 L 65.15,40.9 Z" fill="#D4AF37"/>
<path opacity="0.3" d="M 46.13,53.21 L 48.36,52.33 L 50.48,54.9 L 47.76,57.61 L 48.36,62.06 L 45.72,63.83 L 42.23,60.02 L 44.39,54.9 L 46.13,53.21 Z" fill="#D4AF37"/>
<path opacity="0.3" d="M 38.31,79.91 L 40.63,78.69 L 43.51,80.65 L 42.23,82.27 L 38.31,81.31 V 79.91 Z" fill="#D4AF37"/>
<path opacity="0.3" d="M 110.22,153.15 L 116.91,152.61 L 118.17,154.41 L 114.15,155.9 L 107.33,155.15 L 110.22,153.15 Z" fill="#D4AF37"/>
<path opacity="0.3" d="M 149.17,119.77 L 156.12,124.71 L 151.31,125.19 L 148.46,128.21 L 143.72,125.19 L 142.32,122.49 L 146.91,121.14 L 149.17,119.77 Z" fill="#D4AF37"/>
<path opacity="0.3" d="M 41.62,132.05 L 44.39,133.44 L 47.76,132.9 L 50.48,133.44 L 53.64,132.05 L 49.58,131.64 L 45.72,132.05 H 41.62 Z" fill="#D4AF37"/>
<path d="M 97.5,52.47 C 71.06,52.47 49.23,74.92 49.23,100.22 C 49.23,125.52 71.06,143.81 97.5,143.81 C 122.73,143.81 143.72,123.09 143.72,97.86 C 143.72,72.63 122.73,52.47 97.5,52.47 Z" stroke="#0A2540" stroke-width="0.58" stroke-miterlimit="10"/>
<path d="M 97.5,57.61 C 73.92,57.61 54.12,76.91 54.12,99.62 C 54.12,122.33 73.92,135.96 97.5,135.96 C 119.84,135.96 138.82,117.76 138.82,95.41 C 138.82,73.06 119.84,57.61 97.5,57.61 Z" stroke="#0A2540" stroke-width="0.58" stroke-miterlimit="10"/>
<path d="M 97.5,62.06 C 76.36,62.06 58.71,79.23 58.71,99.41 C 58.71,119.59 76.36,131.71 97.5,131.71 C 117.86,131.71 134.66,114.98 134.66,94.62 C 134.66,74.26 117.86,62.06 97.5,62.06 Z" stroke="#0A2540" stroke-width="0.58" stroke-miterlimit="10"/>
<path d="M 97.64,43.76 L 91.77,86.13 L 78.35,90.62 L 67.23,66.01 L 89.12,88.21 L 97.64,43.76 Z" fill="url(#navy-gradient)" stroke="#0A2540" stroke-width="0.58" stroke-miterlimit="10"/>
<path d="M 97.64,43.76 L 102.72,85.11 L 115.41,89.74 L 147.51,43.76 L 129.01,62.06 L 118.17,65.81 L 112.14,63.15 L 106.01,78.69 L 97.64,43.76 Z" fill="url(#navy-gradient)" stroke="#0A2540" stroke-width="0.58" stroke-miterlimit="10"/>
<path d="M 97.5,150.66 L 93.31,109.31 L 82.04,106.1 L 45.72,97.41 L 86.21,93.21 L 90.18,86.13 L 97.5,85.11 L 103.93,86.13 L 108.14,85.11 L 109.09,89.74 L 150.94,97.41 L 110.62,102.45 L 105.19,108.91 L 97.5,150.66 Z" fill="url(#gold-gradient)" stroke="#0A2540" stroke-width="0.58" stroke-miterlimit="10"/>
<path d="M 97.5,109.31 L 100.26,108.16 L 128.75,129.72 L 109.09,102.45 L 111.35,96.08 L 110.22,91.16 L 116.91,87.22 L 132.76,83.03 L 113.86,90.62 L 108.14,89.74 L 105.19,85.11 L 97.5,86.13 L 90.18,87.89 L 86.21,93.21 L 86.61,98.61 L 83.06,105.52 L 77.66,107.35 L 77.12,113.06 L 72.74,118.14 L 67.23,119.36 L 66.01,124.71 L 46.94,152.61 L 71.06,132.9 L 77.66,130.67 L 78.41,123.09 L 83.06,118.14 L 89.12,117.22 L 91.77,108.91 L 97.5,109.31 Z" fill="url(#navy-gradient)" stroke="#0A2540" stroke-width="0.58" stroke-miterlimit="10"/>
<path d="M 97.5,90.15 C 92.72,90.15 89.73,94.16 89.73,97.86 C 89.73,102.11 93.21,105.52 97.5,105.52 C 102.13,105.52 105.63,101.43 105.63,97.07 C 105.63,92.91 102.06,90.15 97.5,90.15 Z" fill="#FFFFFF" stroke="#0A2540" stroke-width="0.58" stroke-miterlimit="10"/>
<path d="M 97.5,92.23 C 94.31,92.23 92.31,95.01 92.31,97.62 C 92.31,100.64 94.83,102.92 97.5,102.92 C 100.69,102.92 102.92,99.96 102.92,97.21 C 102.92,94.46 100.43,92.23 97.5,92.23 Z" fill="#FFFFFF" stroke="#0A2540" stroke-width="0.58" stroke-miterlimit="10"/>
<path d="M 119.91,67.2 L 120.72,70.13 C 120.72,74.07 114.81,77.74 112.91,77.74 C 110.01,78.69 107.33,78.69 106.45,78.69 V 82.27 C 107.33,84.97 109.88,86.13 111.35,86.13 L 115.41,85.11 C 116.91,79.91 121.13,76.07 123.61,76.07 L 127.07,76.64 L 130.13,73.16 L 128.75,70.13 L 130.13,66.69 L 124.36,63.83 L 118.17,66.69 L 119.91,67.2 Z" fill="url(#gold-gradient)" stroke="#0A2540" stroke-width="0.58" stroke-miterlimit="10"/>
<path d="M 122.73,73.16 L 125.39,68.15 L 123.61,70.13 L 122.73,73.16 Z" stroke="#0A2540" stroke-width="0.58" stroke-miterlimit="10"/>
<path d="M 110.22,86.13 L 113.86,81.31 V 83.63 L 112.14,86.13 H 110.22 Z" stroke="#0A2540" stroke-width="0.58" stroke-miterlimit="10"/>
<path d="M 69.73,122.49 L 70.58,126.31 L 73.69,125.19 L 73.92,122.22 L 70.14,121.81 L 69.73,122.49 Z" stroke="#0A2540" stroke-width="0.58" stroke-miterlimit="10"/>
<path d="M 82.04,108.91 L 83.47,109.86 L 83.06,112.25 L 85.49,112.11 L 86.21,109.86 L 85.49,108.16 L 83.06,107.35 L 82.04,108.91 Z" stroke="#0A2540" stroke-width="0.58" stroke-miterlimit="10"/>
<path d="M 97.5,86.13 L 85.02,63.15 L 92.31,83.63" stroke="#0A2540" stroke-width="0.58" stroke-miterlimit="10"/>
<path d="M 91.77,86.13 L 71.06,73.16 L 88.71,88.66" stroke="#0A2540" stroke-width="0.58" stroke-miterlimit="10"/>
<path d="M 85.49,90.62 L 63.44,83.03 L 83.94,93.21" stroke="#0A2540" stroke-width="0.58" stroke-miterlimit="10"/>
<path d="M 86.21,98.61 L 63.44,112.66 L 85.02,103.22" stroke="#0A2540" stroke-width="0.58" stroke-miterlimit="10"/>
<path d="M 90.18,115.04 L 83.06,132.9 L 94.36,111.23" stroke="#0A2540" stroke-width="0.58" stroke-miterlimit="10"/>
<path d="M 103.93,108.16 L 112.14,132.9 L 105.19,110.62" stroke="#0A2540" stroke-width="0.58" stroke-miterlimit="10"/>
<path d="M 110.22,102.45 L 132.76,112.66 L 113.25,101.23" stroke="#0A2540" stroke-width="0.58" stroke-miterlimit="10"/>
<path d="M 97.5,50.33 L 98.77,52.33 H 97.5 V 50.33 Z" fill="#0A2540"/>
<path d="M 97.5,56.01 L 100.26,58.36 L 97.5,58.63 V 56.01 Z" fill="#0A2540"/>
<path d="M 97.5,62.06 L 100.26,64.79 L 97.5,64.93 V 62.06 Z" fill="#0A2540"/>
<path d="M 97.5,68.15 L 100.81,70.13 L 98.05,70.74 L 97.5,68.15 Z" fill="#0A2540"/>
<path d="M 97.5,73.16 L 101.45,75.25 L 98.77,75.66 L 97.5,73.16 Z" fill="#0A2540"/>
<path d="M 97.5,78.69 L 101.45,80.65 L 98.77,81.31 L 97.5,78.69 Z" fill="#0A2540"/>
<path d="M 97.5,83.63 L 101.45,85.11 L 98.77,85.72 L 97.5,83.63 Z" fill="#0A2540"/>
<path d="M 113.25,97.07 L 114.15,99.62 L 116.02,97.07 L 116.91,99.62 L 118.17,97.41 L 119.43,99.01 L 120.72,97.41 L 121.61,98.61 L 122.73,97.41 L 123.61,98.61 L 124.77,97.41 L 126.19,98.61 L 127.07,97.41" stroke="#0A2540" stroke-width="0.58" stroke-miterlimit="10"/>
<path d="M 63.44,96.36 L 64.74,97.86 L 66.01,96.08 L 66.82,97.41 L 68.11,96.08 L 69.33,97.41 L 70.58,96.08 L 71.47,97.41 L 72.74,96.08 L 73.69,97.41 L 74.84,96.08 L 75.76,97.41 L 76.71,96.08 L 77.66,97.41 L 78.82,96.08 L 79.7,97.41 L 80.61,96.08 L 81.63,97.07 L 82.65,96.08 L 83.94,96.69" stroke="#0A2540" stroke-width="0.58" stroke-miterlimit="10"/>
<path d="M 93.31,109.86 L 96.23,113.06 L 94.77,113.6 L 97.12,116.84 L 95.76,117.22 L 97.5,120.66 L 96.23,120.93 L 97.5,124.71 L 96.23,124.85 L 97.12,128.21" stroke="#0A2540" stroke-width="0.58" stroke-miterlimit="10"/>
<path d="M 94.36,32.62 H 97.01 L 101.23,38.57 V 33.64 L 100.32,32.62 H 102.92 L 102.04,33.71 V 41.85 H 101.08 L 95.31,34.12 V 40.63 L 96.36,41.71 H 93.31 L 94.36,40.56 V 33.51 L 93.31,32.62 H 94.36 Z" fill="#0A2540"/>
<path d="M 31.67,93.75 H 34.94 L 35.67,94.63 L 36.94,99.62 L 38.86,94.63 L 38.17,93.75 H 40.9 L 40.08,94.77 L 41.62,99.62 L 43.51,94.7 L 42.63,93.75 H 44.91 L 41.11,102.92 H 40.42 L 38.31,96.22 L 35.82,102.92 H 35.01 L 32.35,94.7 L 31.67,93.75 Z" fill="#0A2540"/>
<path d="M 94.84,159.71 C 95.31,161.34 96.36,162.42 97.64,162.42 C 98.7,162.42 99.48,161.74 99.48,160.72 C 99.48,160.18 99.18,159.71 98.56,159.3 L 96.36,158.11 C 95.38,157.56 94.84,156.82 94.84,155.8 C 94.84,154.41 95.86,153.35 97.36,153.35 C 97.91,153.35 98.43,153.56 99.04,153.9 L 99.92,153.35 L 100.33,156.07 L 99.85,155.87 C 99.11,154.54 98.43,153.96 97.43,153.96 C 96.51,153.96 95.96,154.54 95.96,155.46 C 95.96,156.07 96.3,156.55 97.12,156.96 L 99.04,157.98 C 100.12,158.59 100.74,159.23 100.74,160.46 C 100.74,161.95 99.51,163.03 97.71,163.03 C 96.92,163.03 96.3,162.76 95.55,162.22 L 95.04,163.03 L 94.77,159.71 H 94.84 Z" fill="#0A2540"/>
<path d="M 153.65,93.96 L 154.53,94.84 H 161.66 L 162.41,93.75 L 162.82,96.94 H 161.94 L 161.53,95.41 H 158.44 V 98.61 H 160.03 L 160.78,97.41 V 100.43 L 160.03,99.35 H 158.31 L 157.01,99.28 V 95.41 H 154.66 V 100.36 L 156.12,101.51 H 153.31 L 153.92,100.43 V 94.84 L 153.65,93.96 Z" fill="#0A2540"/>
<path d="M 48.76,63.15 L 49.23,70.13 L 50.01,66.69 L 49.51,70.74 L 53.64,67.2 L 50.48,71.15 L 55.78,70.74 L 50.96,72.14 L 55.78,72.62 L 51.23,72.35 L 54.62,76.07 L 50.48,73.02 L 50.01,80.04 L 48.76,72.89 L 45.31,76.64 L 48.36,72.62 L 42.23,72.14 L 47.96,71.24 L 43.51,68.62 L 48.63,70.4 L 48.76,63.15 Z" stroke="#0A2540" stroke-width="0.39" stroke-miterlimit="10"/>
<path d="M 49.17,66.69 C 51.93,66.69 54.12,69.23 54.12,71.63 C 54.12,74.26 51.93,76.64 49.23,76.64 C 46.33,76.64 44.39,74.07 44.39,71.56 C 44.39,68.96 46.61,66.69 49.17,66.69 Z" stroke="#0A2540" stroke-width="0.39" stroke-miterlimit="10"/>
<path d="M 147.91,115.92 V 132.05" stroke="#0A2540" stroke-width="0.2" stroke-miterlimit="10"/>
<path d="M 141.06,124.71 H 154.77" stroke="#0A2540" stroke-width="0.2" stroke-miterlimit="10"/>
<path d="M 144.25,119.36 L 151.51,127.26" stroke="#0A2540" stroke-width="0.2" stroke-miterlimit="10"/>
<path d="M 144.12,127.53 L 151.65,119.22" stroke="#0A2540" stroke-width="0.2" stroke-miterlimit="10"/>
<path d="M 148.05,118.68 C 150.81,118.68 152.61,120.73 152.61,123.09 C 152.61,125.72 150.63,127.67 148.12,127.67 C 145.46,127.67 143.51,125.52 143.51,123.23 C 143.51,120.73 145.56,118.68 148.05,118.68 Z" stroke="#0A2540" stroke-width="0.2" stroke-miterlimit="10"/>
<path d="M 147.91,122.42 L 148.96,123.44 L 147.91,124.17 L 147.03,123.23 L 147.91,122.42 Z" stroke="#0A2540" stroke-width="0.2" stroke-miterlimit="10"/>
<path d="M 142.32,75.25 C 142.32,75.25 142.9,73.63 145.07,73.63 H 154.47 C 155.72,73.63 157.15,75.25 157.15,75.25 L 155.31,76.64 L 154.77,79.91 H 147.91 L 143.72,76.64 L 142.32,75.25 Z" stroke="#0A2540" stroke-width="0.29" stroke-miterlimit="10"/>
<path d="M 145.07,73.63 C 145.07,73.63 144.39,70.13 146.91,68.15 L 150.94,67.2 C 150.94,67.2 149.31,70.13 150.46,72.62" stroke="#0A2540" stroke-width="0.29" stroke-miterlimit="10"/>
<path d="M 145.48,66.01 L 145.07,66.69 C 145.07,66.69 144.66,68.96 146.19,70.13" stroke="#0A2540" stroke-width="0.29" stroke-miterlimit="10"/>
<path d="M 150.05,63.15 L 148.83,64.79 V 67.2" stroke="#0A2540" stroke-width="0.29" stroke-miterlimit="10"/>
<path d="M 150.94,63.83 L 149.17,63.15 L 147.37,64.79 L 148.46,64.52 L 149.17,65.06" stroke="#0A2540" stroke-width="0.29" stroke-miterlimit="10"/>
<path d="M 145.82,65.54 L 144.66,65.81 L 145.48,66.69 H 146.91 L 147.37,65.81 L 145.82,65.54 Z" stroke="#0A2540" stroke-width="0.29" stroke-miterlimit="10"/>
<path d="M 156.12,69.1 C 156.12,69.1 153.92,70.74 153.11,75.25 L 152.39,76.64 H 155.72 C 155.72,76.64 155.04,74.41 156.67,70.74 L 156.12,69.1 Z" stroke="#0A2540" stroke-width="0.29" stroke-miterlimit="10"/>
<path d="M 141.91,80.65 H 160.78" stroke="#0A2540" stroke-width="0.2" stroke-miterlimit="10"/>
<path d="M 144.39,82.27 H 157.01" stroke="#0A2540" stroke-width="0.2" stroke-miterlimit="10"/>
<path d="M 120.25,151.41 H 136.51 L 138.21,147.78 H 124.36 L 120.25,151.41 Z" stroke="#0A2540" stroke-width="0.29" stroke-miterlimit="10"/>
<path d="M 118.17,146.67 L 122.73,146.12 L 124.36,147.78 L 132.76,147.24 L 136.51,146.67 L 137.66,145.62 L 136.16,144.22 L 137.66,138.37 L 136.51,138.63 L 133.64,144.22 L 133.17,147.24 L 131.45,147.78 L 132.76,139.34 L 130.13,137.32 L 133.64,134.36 L 133.17,133.44 L 131.45,134.36 L 129.65,133.44 L 129.01,133.96 L 128.01,136.7 L 125.39,135.96 L 123.61,139.34 L 122.73,141.11 L 118.17,145.62 L 120.72,146.67 H 118.17 Z" stroke="#0A2540" stroke-width="0.29" stroke-miterlimit="10"/>
<path d="M 123.61,139.34 L 130.13,137.32" stroke="#0A2540" stroke-width="0.29" stroke-miterlimit="10"/>
<path d="M 123.61,141.11 L 131.45,138.37" stroke="#0A2540" stroke-width="0.29" stroke-miterlimit="10"/>
<path d="M 123.61,143.81 L 130.91,141.11" stroke="#0A2540" stroke-width="0.29" stroke-miterlimit="10"/>
<path d="M 123.61,146.12 L 126.19,145.62 L 128.01,147.24" stroke="#0A2540" stroke-width="0.29" stroke-miterlimit="10"/>
<path d="M 133.64,144.22 L 136.51,143.81" stroke="#0A2540" stroke-width="0.29" stroke-miterlimit="10"/>
<path d="M 83.06,153.15 H 73.69" stroke="#0A2540" stroke-width="0.2" stroke-miterlimit="10"/>
<path d="M 71.06,153.15 H 63.44" stroke="#0A2540" stroke-width="0.2" stroke-miterlimit="10"/>
<path d="M 79.7,151.62 C 77.66,151.62 77.66,146.67 73.69,146.67 C 70.58,146.67 70.14,151.62 67.23,151.62 C 64.74,151.62 63.44,148.05 63.44,146.67 C 63.44,144.76 65.15,143.37 65.15,142.43 C 65.15,141.11 63.44,142.43 62.22,142.43 C 61.27,142.43 61.27,141.11 61.27,141.11 C 62.63,141.11 62.22,142.04 63.44,141.11 C 64.74,140.15 65.63,141.11 65.63,142.43 C 65.63,144.22 63.44,145.62 63.44,147.24 C 63.44,148.73 65.15,149.75 66.01,149.75 C 67.71,149.75 67.71,145.62 72.06,145.62 C 76.36,145.62 77.66,149.75 79.29,149.75 C 80.61,149.75 81.02,148.05 81.02,147.24 C 81.02,145.62 79.29,145.14 79.29,144.22 C 79.29,142.43 80.61,142.43 81.02,142.43 C 82.04,142.43 82.04,143.37 82.92,143.37 C 83.94,143.37 83.94,145.14 84.83,145.14 C 85.49,145.14 85.49,144.22 86.21,144.22 C 86.21,144.22 85.49,146.12 84.83,146.12 C 83.94,146.12 83.06,144.22 82.04,144.22 C 81.02,144.22 80.61,144.76 80.61,145.62 C 80.61,147.24 83.06,148.05 83.06,149.75 C 83.06,150.73 81.63,151.62 79.7,151.62 Z" stroke="#0A2540" stroke-width="0.29" stroke-miterlimit="10"/>
<path d="M 53.64,52.33 H 83.06" stroke="#0A2540" stroke-width="0.2" stroke-miterlimit="10"/>
<path d="M 57.72,53.21 C 59.25,53.21 59.25,53.62 60.65,53.62 C 62.22,53.62 62.22,52.33 63.44,52.33 H 66.82 C 67.71,52.33 68.11,53.21 69.33,53.21 C 70.58,53.21 71.06,52.33 72.74,52.33 H 76.23 C 77.66,52.33 77.66,51.41 78.82,51.41 H 80.61" stroke="#0A2540" stroke-width="0.2" stroke-miterlimit="10"/>
<path d="M 58.71,51.41 C 58.71,51.41 59.25,46.62 62.63,46.62 C 66.01,46.62 65.63,49.21 66.82,49.21 C 67.71,49.21 67.23,48.06 68.11,48.06 C 69.33,48.06 68.11,49.21 69.33,49.21 H 72.06 C 73.69,49.21 73.69,47.22 73.69,46.62 C 73.69,44.23 72.06,43.28 72.06,41.11 C 72.06,39.36 73.69,39.02 74.53,39.02 C 76.71,39.02 77.66,39.84 77.66,41.11 C 77.66,42.4 76.23,42.4 76.23,43.28 C 76.23,44.61 78.82,45.63 78.82,46.62 C 78.82,48.06 77.12,48.06 76.23,48.06 C 75.35,48.06 75.35,45.16 75.35,44.23 C 75.35,42.4 77.12,42.06 77.12,40.63 C 77.12,39.61 75.35,39.02 74.53,39.02 C 73.69,39.02 73.21,39.61 73.21,40.63 C 73.21,42.4 75.35,44.23 75.35,47.22 C 75.35,49.21 74.53,49.21 73.69,49.21 C 72.06,49.21 72.06,48.06 70.58,48.06 C 68.11,48.06 68.11,49.21 66.82,49.21 C 65.15,49.21 65.63,47.22 63.44,47.22 C 61.27,47.22 60.65,49.21 60.65,50.33 H 58.71,51.41 Z" stroke="#0A2540" stroke-width="0.29" stroke-miterlimit="10"/>
<path d="M 120.72,56.55 L 129.01,40.9 L 133.17,42.95 L 133.64,43.76 L 133.17,44.61 L 133.64,45.63 L 131.45,47.22 L 130.13,48.06 L 129.01,49.21 L 127.07,50.33 L 124.36,50.91 L 123.61,56.01 L 129.01,54.9 L 125.39,54.09 L 124.36,52.33 L 123.61,51.41 Z" fill="#0A2540"/>
</svg>